<?xml version="1.0" encoding="utf-8"?>
<!-- Generator: Adobe Illustrator 16.0.0, SVG Export Plug-In . SVG Version: 6.00 Build 0)  -->
<!DOCTYPE svg PUBLIC "-//W3C//DTD SVG 1.1//EN" "http://www.w3.org/Graphics/SVG/1.1/DTD/svg11.dtd">
<svg version="1.1" id="Layer_1" xmlns="http://www.w3.org/2000/svg" xmlns:xlink="http://www.w3.org/1999/xlink" x="0px" y="0px"
	 width="30px" height="30px" viewBox="0 0 30 30" enable-background="new 0 0 30 30" xml:space="preserve">
<path fill="#997ADD" d="M29.654,18.074l-3.078-3.078l3.078-3.077c0.451-0.452,0.451-1.19,0-1.642l-9.939-9.939
	c-0.451-0.452-1.189-0.452-1.642,0l-3.077,3.078l-3.078-3.078c-0.452-0.452-1.19-0.452-1.642,0l-9.939,9.939
	c-0.451,0.451-0.451,1.19,0,1.642l3.078,3.077l-3.078,3.078c-0.451,0.451-0.451,1.189,0,1.641l9.939,9.94
	c0.452,0.45,1.19,0.45,1.642,0l3.078-3.078l3.077,3.078c0.452,0.45,1.19,0.45,1.642,0l9.939-9.94
	C30.105,19.264,30.105,18.525,29.654,18.074z M14.996,11.121l3.875,3.875l-3.875,3.876l-3.876-3.876L14.996,11.121z"/>
</svg>
